# xmcd
#
# Track frame offsets:
#	150
#	13425
#	26637
#	44760
#	61397
#	75182
#	89545
#	109832
#	125735
#	142030
#	157292
#	180415
#
# Disc length: 2599 seconds
#
# Revision: 10
# Processed by: cddbd v1.5.2PL0 Copyright (c) Steve Scherf et al.
# Submitted via: EZCDAudioConverter 2.2.2.1
#
DISCID=ab0a250c
DTITLE=A Tribute To HANK WILLIAMS - Timeless
DYEAR=2001
DGENRE=Country
TTITLE0=Bob Dylan - Can't Get You Off Of My Mind
TTITLE1=Sheryl Crow - Long Gone Lonesome Blues
TTITLE2=Keb' Mo' - I'm So Lonesome I Could Cry
TTITLE3=Beck - Your Cheatin' Heart
TTITLE4=Mark Knopfler and His Band - Lost On The River(Feat. Emmylou Harris)
TTITLE5=Tom Petty - You're Gonna Change(Or I'm Gonna Leave)
TTITLE6=Keith Richards - You Win Again
TTITLE7=Emmylou Harris - Alone And Forsaken(Feat. Mark Knopfler and His Band)
TTITLE8=Hank III. - I'm A Long Gone Daddy
TTITLE9=Ryan Adams - Lovesick Blues
TTITLE10=Lucinda Williams - Cold, Cold Heart
TTITLE11=Johnny Cash - I Dreamed About Mama Last Night
EXTD=
EXTT0=
EXTT1=
EXTT2=
EXTT3=
EXTT4=
EXTT5=
EXTT6=
EXTT7=
EXTT8=
EXTT9=
EXTT10=
EXTT11=
PLAYORDER=
